<svg xmlns="http://www.w3.org/2000/svg" xmlns:xlink="http://www.w3.org/1999/xlink" viewBox="0 0 371.19 113.16"><defs><style>.cls-1{fill:#266198;}.cls-13,.cls-2{fill:none;}.cls-2{stroke-miterlimit:10;stroke-width:7px;stroke:url(#linear-gradient);}.cls-3{fill:#f79431;}.cls-4{fill:#dca8e2;}.cls-5{fill:#ed3235;}.cls-6{fill:#83c456;}.cls-7{fill:#a25cbf;}.cls-8{fill:#2f8c45;}.cls-9{fill:#623b96;}.cls-10{fill:#faac4a;}.cls-11{fill:#db2865;}.cls-12{fill:#45b65c;}.cls-14{fill:#245d38;}.cls-15{fill:#00563f;}.cls-16{fill:#009d4e;}.cls-17{fill:#4d2a74;}.cls-18{fill:#0069b4;}.cls-19{fill:#01558a;}.cls-20{fill:#1d2e5a;}.cls-21{fill:#f16536;}.cls-22{fill:#cbdb45;}.cls-23{fill:#7a6e8b;}.cls-24{fill:#1380ab;}.cls-25{fill:#84c456;}</style><linearGradient id="linear-gradient" x1="47.81" y1="34.18" x2="47.81" y2="34.18" gradientUnits="userSpaceOnUse"><stop offset="0" stop-color="#1086c8"/><stop offset="1" stop-color="#214b97"/></linearGradient></defs><title>Asset 2</title><g id="Layer_2" data-name="Layer 2"><g id="Layer_1-2" data-name="Layer 1"><path class="cls-1" d="M212,111.22A165.26,165.26,0,0,1,192,113q-20.87,0-20.87-28.82,0-29,20.87-29a181.81,181.81,0,0,1,20.1,1.71v8.8a185.74,185.74,0,0,0-19.86-1.25q-10.44,0-10.44,19.71t10.44,19.71q9.74-.16,19.78-1.32Z"/><path class="cls-1" d="M259,113.16,254.28,100H231.78L227,113.16H216.35L234,59.81q1.48-4.52,5.61-4.52h6.7q4.13,0,5.61,4.52l17.68,53.35Zm-7.71-22.51-7.63-23.37h-1l-7.79,23.37Z"/><path class="cls-1" d="M291,104.47c-3.93,0-5.61-.67-6.33-1.24-1.79-1.39-2.69-2.77-2.69-4.1V56.62H271.46V97.41a23.36,23.36,0,0,0,.69,6,12.59,12.59,0,0,0,4.91,6A23,23,0,0,0,289.18,113h23.3v-8.54Z"/><path class="cls-1" d="M360.52,113.16,355.85,100H333.34l-4.75,13.17H317.92L335.6,59.81q1.48-4.52,5.61-4.52h6.7q4.13,0,5.61,4.52l17.68,53.35Zm-7.71-22.51-7.63-23.37h-1l-7.79,23.37Z"/><path class="cls-2" d="M47.81,34.18"/><path class="cls-3" d="M24.73,95.22a21.74,21.74,0,0,1-4.49-3.31A25.47,25.47,0,0,1,15.34,86H14V100.5H28.63V97.14a26,26,0,0,1-3.7-1.8Z"/><path class="cls-3" d="M14.72,85c-.28-.51-.51-1-.75-1.54V86h1.37C15.14,85.68,14.92,85.35,14.72,85Z"/><path class="cls-4" d="M11.17,58.32V57.07H0v1.3C0,61.89,0,67,.23,71.55H11.37C11.17,67,11.17,61.68,11.17,58.32Z"/><path class="cls-5" d="M12.36,79.52c0-.18-.08-.35-.14-.52s-.12-.48-.18-.72L12,78l-.28-1.74c-.14-1.33-.24-3-.31-4.68H.23C.32,73.9.46,76.13.67,78l0,.22a21.05,21.05,0,0,0,.43,2.34l1.2,4c.18.49.4,1,.6,1.46H14V83.46A31,31,0,0,1,12.36,79.52Z"/><path class="cls-6" d="M28.63,97.14v3.37h9.61V99A26.58,26.58,0,0,1,28.63,97.14Z"/><polygon class="cls-7" points="0.03 57.07 11.16 57.07 11.13 54.38 11.21 42.68 13.97 42.71 13.97 42.6 0.08 42.6 0 54.4 0.03 57.07"/><path class="cls-6" d="M13.15,100.5l.82.72v-.72Z"/><path class="cls-8" d="M28.63,108.85a37.84,37.84,0,0,0,9.54,1.3l.07-9.65H28.63Z"/><polygon class="cls-9" points="28.63 42.6 28.63 31.7 11.16 31.57 11.16 42.6 28.63 42.6"/><path class="cls-10" d="M14,86h-11a43.81,43.81,0,0,0,2,4.32,36.44,36.44,0,0,0,7.81,9.82l.39.34H14Z"/><polygon class="cls-9" points="13.97 42.6 13.97 42.71 28.63 42.83 28.63 42.6 13.97 42.6"/><polygon class="cls-11" points="38.76 42.6 38.85 31.78 28.63 31.7 28.63 42.6 38.76 42.6"/><path class="cls-12" d="M14,100.5v.72A31.36,31.36,0,0,0,19.34,105a37.25,37.25,0,0,0,9.29,3.89V100.5Z"/><polygon class="cls-11" points="28.63 42.83 38.76 42.91 38.76 42.6 28.63 42.6 28.63 42.83"/><path class="cls-13" d="M57.17,46.55a18.94,18.94,0,0,0-.52,4.56l0,.62-.11.61A15.44,15.44,0,0,0,56.45,54c0,.19,0,.36,0,.54h.74Z"/><path class="cls-13" d="M126.77,106.22h2.13V105Q127.85,105.66,126.77,106.22Z"/><path class="cls-3" d="M77.23,85.31a13,13,0,0,0,2.69-2,15.26,15.26,0,0,0,2.93-3.52h.82v8.67H74.89v-2a15.56,15.56,0,0,0,2.22-1.08Z"/><path class="cls-3" d="M83.22,79.19c.17-.31.3-.62.45-.92V79.8h-.82C83,79.6,83.11,79.4,83.22,79.19Z"/><path class="cls-14" d="M85.35,63.2v-.75H92v.78c0,2.11,0,5.14-.11,7.89H85.23C85.35,68.41,85.35,65.22,85.35,63.2Z"/><path class="cls-15" d="M84.64,75.91c0-.11,0-.21.08-.31l.11-.43.05-.19.17-1c.08-.8.14-1.77.19-2.8h6.68a24.69,24.69,0,0,1-1.62,8.67H83.68V78.26A18.59,18.59,0,0,0,84.64,75.91Z"/><path class="cls-6" d="M74.89,86.46v2H69.13v-.89A15.93,15.93,0,0,0,74.89,86.46Z"/><polygon class="cls-16" points="92.03 62.45 85.36 62.45 85.38 60.84 85.33 53.83 83.68 53.84 83.68 53.78 92 53.78 92.05 60.85 92.03 62.45"/><path class="cls-6" d="M84.16,88.48l-.49.43v-.43Z"/><polygon class="cls-17" points="91.96 47.1 85.23 47.17 85.23 53.83 92 53.83 91.96 47.1"/><path class="cls-8" d="M74.89,93.48a22.67,22.67,0,0,1-5.72.78l0-5.78h5.76Z"/><path class="cls-10" d="M83.68,79.8h6.62a26.25,26.25,0,0,1-1.22,2.59,21.83,21.83,0,0,1-4.68,5.88l-.23.2h-.49Z"/><polygon class="cls-9" points="74.89 47.25 74.89 53.78 74.89 53.92 85.23 53.84 85.23 53.78 85.23 47.17 74.89 47.25"/><path class="cls-12" d="M83.68,88.48v.43a18.79,18.79,0,0,1-3.22,2.24,22.32,22.32,0,0,1-5.57,2.33v-5Z"/><polygon class="cls-11" points="68.76 47.3 68.82 53.78 68.82 53.97 74.89 53.92 74.89 53.78 74.89 47.25 68.76 47.3"/><path class="cls-18" d="M58.16,42.77A23.13,23.13,0,0,1,58.92,40l.12-.36a36.32,36.32,0,0,1,3.36-7.48l.54-.8c.53-.91,1.11-1.8,1.7-2.67H57.17V46.55c.23-1.05.52-2.18.88-3.36Z"/><polygon class="cls-10" points="57.17 101.36 56.72 101.36 56.58 80.37 45.48 80.37 45.59 94.47 45.69 106.17 45.68 106.22 57.17 106.22 57.17 101.36"/><path class="cls-19" d="M57.17,20a54,54,0,0,0-3.49,5.09l-.56.83c-.54.94-1,1.84-1.49,2.72h5.55Z"/><path class="cls-1" d="M56.42,54.72v-.2H45.28l.2,25.85h11.1Z"/><path class="cls-20" d="M56.45,54a15.44,15.44,0,0,1,.12-1.64l.11-.61,0-.62a18.94,18.94,0,0,1,.52-4.56V28.67H51.62a43.47,43.47,0,0,0-3.21,7.64,32.82,32.82,0,0,0-1.07,3.83A38,38,0,0,0,45.51,51c-.12.89-.15,1.75-.18,2.46l0,.92v.09H56.43C56.44,54.34,56.44,54.16,56.45,54Z"/><polygon class="cls-21" points="45.68 106.22 45.78 112.56 52.03 112.56 56.73 112.49 56.73 106.22 45.68 106.22"/><path class="cls-22" d="M128.9,91.77A32.88,32.88,0,0,1,124.05,95l-.21.12A43.38,43.38,0,0,1,102,101.19l-8.94,0v5h33.73q1.08-.56,2.13-1.17Z"/><path class="cls-22" d="M93,112.34l9,0a54.63,54.63,0,0,0,24.74-6.1H93Z"/><polygon class="cls-10" points="56.73 106.22 56.73 112.49 60.13 112.44 93.04 112.34 93.04 106.22 56.73 106.22"/><polygon class="cls-23" points="157.57 28.67 146.41 28.67 146.26 9.45 157.42 9.45 157.57 28.67"/><path class="cls-12" d="M146.42,29.77,146.36,36c0,5,0,12.09-.23,18.52h11.14c.22-6.54.22-13.54.22-18.47l.06-6.27V28.67H146.42Z"/><path class="cls-8" d="M145.54,63.9l-.32,1.9,0,.32a11.3,11.3,0,0,1-.26,1.11c-.08.31-.16.61-.23.92a5.7,5.7,0,0,0-.28,1.1,51,51,0,0,1-3.84,8.92c-.41.76-.88,1.47-1.33,2.2h12.69a62.57,62.57,0,0,0,2.65-6.43l.81-2.51.38-1.23-.06-.18c.15-.58.33-1.27.46-2a8.22,8.22,0,0,0,.33-1.92l0-.43c.36-3.11.59-7,.72-11.12H146.14C146,58,145.83,61.27,145.54,63.9Z"/><path class="cls-24" d="M75.46,4.66c.6-.31,1.59-.75,2.45-1.13V16A43.85,43.85,0,0,0,64.64,28.67H57.17V20a54.61,54.61,0,0,1,9.71-9.84,2,2,0,0,1,.2-.17h0l.17-.13a56.25,56.25,0,0,1,7.09-4.66Z"/><path class="cls-17" d="M79.32,3l-.7.28Z"/><path class="cls-25" d="M131.37,89.66c-.83.77-1.65,1.45-2.47,2.11V105l.53-.29a46,46,0,0,0,9.41-6.84,53.21,53.21,0,0,0,11.5-14.41c.56-1,1.09-2.09,1.59-3.14H139.24A42.31,42.31,0,0,1,131.37,89.66Z"/><polygon class="cls-17" points="0.14 31.46 0.09 40.96 0.08 40.96 0.08 42.71 11.16 42.71 11.16 42.6 11.16 40.96 11.16 31.57 0.14 31.46"/><path class="cls-17" d="M157.42,0V9.44H118.34V.1L146.26,0Z"/><path class="cls-20" d="M95,0A41.47,41.47,0,0,0,79.61,2.84L79.32,3l-.7.28-.71.3V16a44.11,44.11,0,0,1,7.42-3.66l.2-.08A36.81,36.81,0,0,1,93,10.19c.65-.12,1.29-.23,2-.33h0l23.28-.43V.1C109.8.1,101.08.09,95,0Z"/><polygon class="cls-21" points="60.05 101.31 56.73 101.36 56.73 106.22 93.04 106.22 93.04 101.22 66.38 101.31 60.05 101.31"/></g></g></svg>